<svg width="72" height="72" viewBox="0 0 72 72" fill="none" xmlns="http://www.w3.org/2000/svg">
<path d="M0 36C0 16.1177 16.1177 0 36 0C55.8823 0 72 16.1177 72 36C72 55.8823 55.8823 72 36 72C16.1177 72 0 55.8823 0 36Z" fill="#E6F6FF"/>
<path d="M47.6667 51.0026V47.6693C47.6667 46.3432 47.1395 45.0718 46.2018 44.1341C45.3815 43.3138 44.3059 42.8075 43.1615 42.6937L42.6667 42.6693H29.3333C28.0073 42.6693 26.7359 43.1964 25.7982 44.1341C24.8605 45.0718 24.3333 46.3432 24.3333 47.6693V51.0026C24.3333 51.9231 23.5871 52.6693 22.6667 52.6693C21.7462 52.6693 21 51.9231 21 51.0026V47.6693C21 45.4591 21.8786 43.3401 23.4414 41.7773C25.0042 40.2145 27.1232 39.3359 29.3333 39.3359H42.6667C44.8768 39.3359 46.9958 40.2145 48.5586 41.7773C50.1214 43.3401 51 45.4591 51 47.6693V51.0026C51 51.9231 50.2538 52.6693 49.3333 52.6693C48.4129 52.6693 47.6667 51.9231 47.6667 51.0026Z" fill="#0077FA"/>
<path d="M41.0001 27.6693C41.0001 24.9078 38.7615 22.6693 36.0001 22.6693C33.2387 22.6693 31.0001 24.9078 31.0001 27.6693C31.0001 30.4307 33.2387 32.6693 36.0001 32.6693C38.7615 32.6693 41.0001 30.4307 41.0001 27.6693ZM44.3334 27.6693C44.3334 32.2716 40.6025 36.0026 36.0001 36.0026C31.3977 36.0026 27.6667 32.2716 27.6667 27.6693C27.6667 23.0669 31.3977 19.3359 36.0001 19.3359C40.6025 19.3359 44.3334 23.0669 44.3334 27.6693Z" fill="#0077FA"/>
</svg>
