<svg width="72" height="72" viewBox="0 0 72 72" fill="none" xmlns="http://www.w3.org/2000/svg">
<path d="M0 36C0 16.1177 16.1177 0 36 0C55.8823 0 72 16.1177 72 36C72 55.8823 55.8823 72 36 72C16.1177 72 0 55.8823 0 36Z" fill="#FFF2ED"/>
<path d="M40.1667 26.8359C40.1666 24.5349 38.3008 22.6699 35.9998 22.6699C33.6988 22.6701 31.8339 24.535 31.8337 26.8359C31.8337 29.137 33.6987 31.0028 35.9998 31.0029C38.3009 31.0029 40.1667 29.1371 40.1667 26.8359ZM43.4998 26.8359C43.4998 30.9781 40.1419 34.3359 35.9998 34.3359C31.8578 34.3358 28.4998 30.978 28.4998 26.8359C28.4999 22.6941 31.8579 19.3361 35.9998 19.3359C40.1418 19.3359 43.4996 22.694 43.4998 26.8359Z" fill="#F93920"/>
<path d="M21.833 26.8298C21.833 24.2796 23.1079 22.0269 25.0469 20.6745C25.8018 20.1482 26.8407 20.3337 27.3672 21.0885C27.8935 21.8435 27.708 22.8823 26.9531 23.4089C25.8698 24.1647 25.167 25.4154 25.167 26.8298C25.1671 28.3433 25.9732 29.6703 27.1875 30.402C27.9757 30.8772 28.2299 31.9018 27.7549 32.6901C27.2798 33.4784 26.2551 33.7315 25.4668 33.2565C23.2934 31.9468 21.8331 29.5597 21.833 26.8298Z" fill="#F93920"/>
<path d="M46.8331 26.8298C46.8331 25.4154 46.1303 24.1647 45.047 23.4089C44.2921 22.8823 44.1066 21.8435 44.6329 21.0885C45.1594 20.3337 46.1983 20.1482 46.9532 20.6745C48.8922 22.0269 50.1671 24.2796 50.1671 26.8298C50.167 29.3796 48.8921 31.6317 46.9532 32.9841C46.1983 33.5105 45.1595 33.3258 44.6329 32.571C44.1063 31.816 44.292 30.7772 45.047 30.2507C46.1304 29.495 46.833 28.2441 46.8331 26.8298Z" fill="#F93920"/>
<path d="M44.333 49.3311C44.333 47.7551 44.3321 46.6567 44.2734 45.7969C44.2158 44.952 44.1087 44.4596 43.9531 44.084C43.4457 42.8589 42.4721 41.8854 41.2471 41.3779C40.8714 41.2223 40.379 41.1153 39.5342 41.0576C38.6744 40.999 37.5759 40.998 36 40.998C34.4241 40.998 33.3256 40.999 32.4658 41.0576C31.621 41.1153 31.1286 41.2223 30.7529 41.3779C29.5279 41.8854 28.5543 42.8589 28.0469 44.084C27.8913 44.4596 27.7842 44.952 27.7266 45.7969C27.6679 46.6567 27.667 47.7551 27.667 49.3311H44.333ZM47.667 50.998C47.6668 51.9184 46.9204 52.6641 46 52.6641H26C25.0796 52.6641 24.3332 51.9184 24.333 50.998V49.3311C24.333 47.801 24.3322 46.5698 24.4004 45.5703C24.4696 44.5557 24.6159 43.6581 24.9678 42.8086C25.8135 40.7668 27.4357 39.1446 29.4775 38.2988C30.3271 37.9469 31.2247 37.8007 32.2393 37.7314C33.2388 37.6633 34.4699 37.6641 36 37.6641C37.5301 37.6641 38.7612 37.6633 39.7607 37.7314C40.7753 37.8007 41.6729 37.9469 42.5225 38.2988C44.5643 39.1446 46.1865 40.7668 47.0322 42.8086C47.3841 43.6581 47.5304 44.5557 47.5996 45.5703C47.6678 46.5698 47.667 47.801 47.667 49.3311V50.998Z" fill="#F93920"/>
<path d="M51.0001 51.0062V50.0062C51.0001 48.112 50.9981 46.7911 50.9142 45.763C50.8318 44.7544 50.6788 44.1746 50.4552 43.7357C49.9758 42.7949 49.2105 42.0305 48.2696 41.5511C47.4495 41.1332 47.1232 40.1291 47.5411 39.3089C47.959 38.4888 48.9632 38.1625 49.7833 38.5804C51.3513 39.3793 52.6259 40.6549 53.4249 42.223C53.9277 43.2101 54.1372 44.2769 54.2364 45.4915C54.3341 46.6868 54.3331 48.1669 54.3331 50.0062V51.0062C54.3329 51.9265 53.5864 52.6722 52.6661 52.6722C51.746 52.672 51.0003 51.9263 51.0001 51.0062Z" fill="#F93920"/>
<path d="M17.6663 51.006V50.006C17.6663 48.1667 17.6653 46.6866 17.7629 45.4913C17.8622 44.2768 18.0717 43.2098 18.5745 42.2228C19.3734 40.6547 20.6491 39.3791 22.217 38.5802C23.037 38.1627 24.0404 38.4888 24.4583 39.3087C24.8761 40.1289 24.5499 41.133 23.7297 41.5509C22.7891 42.0303 22.0245 42.7949 21.5452 43.7355C21.3215 44.1744 21.1676 44.7542 21.0852 45.7628C21.0012 46.7909 21.0002 48.1118 21.0002 50.006V51.006C21 51.9263 20.2536 52.672 19.3333 52.672C18.4129 52.672 17.6665 51.9263 17.6663 51.006Z" fill="#F93920"/>
</svg>
