<svg
  xmlns="http://www.w3.org/2000/svg"
  width="1em"
  height="1em"
  viewBox="0 0 24 24"
  fill="none"
  color="currentColor"
>
  <path
    d="M21.7832 15.0312C21.7831 13.9932 21.4035 13.2566 20.833 12.6924C20.2569 12.1227 19.4826 11.7253 18.6895 11.3799C17.9076 11.0395 17.0916 10.7442 16.4844 10.3887C15.8739 10.0312 15.4152 9.57981 15.415 8.89844C15.415 7.81896 16.4127 7.12698 17.6094 7.12695C18.3023 7.12695 18.9276 7.3162 19.4287 7.54297C20.0521 7.82503 20.8458 7.65621 21.1426 7.0957C21.3403 6.72216 21.2643 6.29276 20.9404 6.08105C20.3137 5.67176 19.2004 5.14746 17.6094 5.14746C15.0857 5.14749 13.2236 6.76884 13.2236 8.92188C13.2237 9.91671 13.6043 10.6324 14.1777 11.1904C14.7567 11.7537 15.5342 12.1582 16.3311 12.5156C17.1171 12.8682 17.9349 13.1796 18.5449 13.5518C19.1574 13.9256 19.6161 14.3925 19.6162 15.0781C19.6162 15.6787 19.3581 16.1347 18.957 16.4355C18.5607 16.7328 18.0329 16.873 17.4922 16.873C16.5655 16.873 15.7404 16.547 15.1299 16.2051C14.5594 15.8856 13.8053 15.9773 13.4502 16.4775C13.1749 16.8659 13.2234 17.3661 13.583 17.624C14.322 18.1539 15.6427 18.8525 17.4688 18.8525C18.8458 18.8525 19.9232 18.4114 20.6553 17.7188C21.3874 17.026 21.7832 16.0732 21.7832 15.0312Z"
    fill="currentColor"
  />
  <path
    d="M13.1602 6.03027C13.1601 5.51661 12.7441 5.09981 12.2305 5.09961H3.23047C2.71674 5.09971 2.29991 5.51654 2.2998 6.03027C2.2998 6.54409 2.71667 6.96083 3.23047 6.96094H6.62793V17.999C6.62793 18.6014 7.11642 19.0897 7.71875 19.0898C8.32116 19.0898 8.80957 18.6014 8.80957 17.999V6.96094H12.2305C12.7442 6.96073 13.1602 6.54403 13.1602 6.03027Z"
    fill="currentColor"
  />
</svg>
