<svg
  xmlns="http://www.w3.org/2000/svg"
  width="1em"
  height="1em"
  viewBox="0 0 24 24"
  fill="none"
  color="currentColor"
>
  <path
    d="M8 12C8 6.477 9.79 2 12 2C14.21 2 16 6.477 16 12C16 17.523 14.21 22 12 22C9.79 22 8 17.523 8 12Z"
    stroke="currentColor"
    stroke-width="1.7"
  />
  <path
    d="M9.97471 8.62003C14.8167 5.85803 19.6487 5.17003 20.7667 7.08303C21.8847 8.99603 18.8667 12.786 14.0247 15.547C9.18271 18.308 4.35071 18.997 3.23271 17.083C2.11471 15.17 5.13271 11.382 9.97471 8.62003Z"
    stroke="currentColor"
    stroke-width="1.7"
  />
  <path
    d="M14.0247 8.62003C18.8667 11.38 21.8847 15.17 20.7667 17.083C19.6487 18.997 14.8167 18.309 9.97471 15.547C5.13271 12.785 2.11471 8.99703 3.23271 7.08303C4.34971 5.17003 9.18271 5.85803 14.0247 8.62003Z"
    stroke="currentColor"
    stroke-width="1.7"
  />
  <path
    d="M12 10.5C11.7033 10.5 11.4133 10.588 11.1666 10.7528C10.92 10.9176 10.7277 11.1519 10.6142 11.426C10.5006 11.7001 10.4709 12.0017 10.5288 12.2926C10.5867 12.5836 10.7296 12.8509 10.9393 13.0607C11.1491 13.2704 11.4164 13.4133 11.7074 13.4712C11.9983 13.5291 12.2999 13.4994 12.574 13.3858C12.8481 13.2723 13.0824 13.08 13.2472 12.8334C13.412 12.5867 13.5 12.2967 13.5 12C13.5 11.6022 13.342 11.2206 13.0607 10.9393C12.7794 10.658 12.3978 10.5 12 10.5Z"
    fill="currentColor"
  />
</svg>
