<svg width="64" height="64" viewBox="0 0 64 64" fill="none" xmlns="http://www.w3.org/2000/svg">
  <rect x="8" y="16" width="48" height="32" rx="4" fill="#2D3748"/>
  <rect x="12" y="20" width="40" height="24" rx="2" fill="#4A5568"/>
  <rect x="14" y="22" width="36" height="4" fill="#E2E8F0"/>
  <rect x="14" y="28" width="36" height="4" fill="#E2E8F0"/>
  <rect x="14" y="34" width="36" height="4" fill="#E2E8F0"/>
  <rect x="14" y="40" width="36" height="2" fill="#E2E8F0"/>
  <rect x="4" y="12" width="8" height="8" rx="2" fill="#2D3748" transform="rotate(45 8 16)"/>
  <rect x="52" y="12" width="8" height="8" rx="2" fill="#2D3748" transform="rotate(45 56 16)"/>
  <rect x="4" y="44" width="8" height="8" rx="2" fill="#2D3748" transform="rotate(45 8 48)"/>
  <rect x="52" y="44" width="8" height="8" rx="2" fill="#2D3748" transform="rotate(45 56 48)"/>
</svg>