<svg width="24" height="24" viewBox="0 0 24 24" fill="none" xmlns="http://www.w3.org/2000/svg">
<path fill-rule="evenodd" clip-rule="evenodd" d="M12 1C18.0751 1 23 5.92487 23 12C23 18.0751 18.0751 23 12 23C5.92487 23 1 18.0751 1 12C1 5.92487 5.92487 1 12 1Z" fill="#15171F"/>
<path fill-rule="evenodd" clip-rule="evenodd" d="M15.707 8.29295C15.3165 7.90243 14.6835 7.90243 14.293 8.29295L12 10.5859L9.70702 8.29295C9.31649 7.90243 8.68348 7.90243 8.29295 8.29295C7.90243 8.68348 7.90243 9.31649 8.29295 9.70702L10.5859 12L8.29295 14.293C7.90243 14.6835 7.90243 15.3165 8.29295 15.707C8.68348 16.0975 9.3165 16.0975 9.70702 15.707L12 13.414L14.293 15.707C14.6835 16.0975 15.3165 16.0975 15.707 15.707C16.0975 15.3165 16.0975 14.6835 15.707 14.293L13.414 12L15.707 9.70702C16.0975 9.3165 16.0975 8.68348 15.707 8.29295Z" fill="white"/>
</svg>
